<svg xmlns="http://www.w3.org/2000/svg" viewBox="0 0 32 32">
  <path d="M4 8 L8 4 L12 10 L10 14 Z" fill="#6c63ff"/>
  <path d="M28 8 L24 4 L20 10 L22 14 Z" fill="#6c63ff"/>
  <path d="M4 8 L2 18 L10 20 L16 28 L22 20 L30 18 L28 8 L24 4 L20 10 L16 6 L12 10 L8 4 Z" fill="#6c63ff" stroke="#6c63ff" stroke-width=".8"/>
  <path d="M10 20 L16 28 L22 20 L20 22 L16 24 L12 22 Z" fill="#f0ebe3"/>
  <circle cx="12" cy="14" r="1.5" fill="#000"/>
  <circle cx="20" cy="14" r="1.5" fill="#000"/>
  <circle cx="16" cy="19" r="1.2" fill="#222"/>
</svg>
